<svg width="287" height="206" viewBox="0 0 287 206" fill="none" xmlns="http://www.w3.org/2000/svg">
<path d="M2 145C37.1667 119.167 77.2801 110.325 138 101.5C224 89 239.5 44.5004 224 21.4996C193.965 -23.0694 155.44 22.0003 174 44.5003M81.5 138.277C93.8333 136.944 198 108.5 238 131C273 150.688 293.172 117.776 270 93.5C259.5 82.5 243 85.5002 238 108M77.5 139C109 133.167 184.4 122.4 196 168C205.285 204.5 141.5 212.5 147 184.5M3 117C8.36189 113.293 23.2148 99.4993 35.5 93.5M35.5 93.5C54.146 84.3944 79.5468 74.3083 108 68.28M35.5 93.5C68.7145 77.28 55 58 35.5 58C13.5 58 14.3333 78.6668 20 85.5002M138 82.5C152.667 79.8333 184.8 71.2 196 58" stroke="black" stroke-width="5" stroke-linejoin="round"/>
<path d="M123.351 40.9502C123.235 41.0162 123.125 41.0771 123.026 41.1106L123.351 40.9502ZM123.351 40.9502C123.499 40.8659 123.658 40.7733 123.818 40.7193M123.351 40.9502L123.818 40.7193M123.818 40.7193C124.125 40.6157 124.436 40.6537 124.688 41.1625L128.764 49.4047C129.388 50.6673 128.466 51.0069 128.057 51.282L126.742 51.932C126.379 52.1115 126.24 52.5711 126.432 52.9585L128.513 57.1672C128.897 57.942 129.796 58.2791 130.522 57.9201L132.493 56.945L140.051 53.2072C140.595 52.9379 140.804 52.2486 140.516 51.6675L132.884 36.2354L124.558 19.4005C124.175 18.6256 123.276 18.2886 122.55 18.6476L108.749 25.4732C107.66 26.0117 107.243 27.3904 107.818 28.5526L114.756 42.5817C115.331 43.744 116.68 44.2496 117.769 43.711L123.818 40.7193Z" stroke="black" stroke-width="3"/>
<path d="M107.866 179.166C107.73 179.078 107.602 178.994 107.51 178.907L107.866 179.166ZM107.866 179.166C108.041 179.279 108.23 179.398 108.38 179.54M107.866 179.166L108.38 179.54M108.38 179.54C108.666 179.81 108.807 180.159 108.419 180.693L102.137 189.341C101.175 190.666 100.283 189.868 99.7569 189.579L98.3123 188.529C97.9134 188.24 97.3506 188.334 97.0553 188.741L93.8473 193.156C93.2568 193.969 93.4248 195.098 94.2227 195.678L96.3898 197.252L104.697 203.287C105.295 203.722 106.139 203.58 106.582 202.97L118.345 186.779L131.177 169.116C131.767 168.303 131.599 167.174 130.801 166.595L115.632 155.574C114.435 154.705 112.747 154.989 111.861 156.208L101.168 170.927C100.282 172.146 100.534 173.84 101.731 174.709L108.38 179.54Z" stroke="black" stroke-width="3"/>
<path d="M44.7689 34.7448C44.7002 34.8252 44.635 34.9002 44.5709 34.9523L44.7689 34.7448ZM44.7689 34.7448C44.8566 34.642 44.95 34.5303 45.0539 34.4461M44.7689 34.7448L45.0539 34.4461M45.0539 34.4461C45.2531 34.2848 45.491 34.2244 45.8024 34.5215L50.846 39.3335C51.6186 40.0706 51.0266 40.5763 50.7951 40.8906L49.9931 41.7311C49.7716 41.9632 49.7843 42.3347 50.0213 42.5609L52.5968 45.018C53.0709 45.4704 53.8143 45.4608 54.2572 44.9965L55.4601 43.7357L60.0714 38.9025C60.4035 38.5543 60.3846 37.997 60.029 37.6578L50.5857 28.6482L40.2839 18.8195C39.8097 18.3672 39.0663 18.3768 38.6234 18.841L30.2029 27.6669C29.5386 28.3632 29.5765 29.4778 30.2877 30.1563L38.8725 38.3469C39.5837 39.0254 40.6988 39.0109 41.3632 38.3146L45.0539 34.4461Z" stroke="black" stroke-width="2"/>
<path d="M240.221 168.412C240.154 168.329 240.093 168.251 240.054 168.179L240.221 168.412ZM240.221 168.412C240.305 168.517 240.398 168.63 240.461 168.747M240.221 168.412L240.461 168.747M240.461 168.747C240.583 168.973 240.598 169.218 240.248 169.469L234.582 173.529C233.714 174.152 233.327 173.476 233.061 173.19L232.385 172.245C232.198 171.985 231.83 171.928 231.564 172.119L228.671 174.192C228.138 174.574 228.009 175.306 228.383 175.828L229.398 177.244L233.289 182.674C233.57 183.065 234.121 183.15 234.52 182.864L245.129 175.261L256.702 166.967C257.235 166.585 257.364 165.853 256.99 165.332L249.884 155.416C249.324 154.634 248.221 154.464 247.422 155.037L237.778 161.948C236.979 162.521 236.786 163.619 237.347 164.402L240.461 168.747Z" stroke="black" stroke-width="2"/>
<path d="M265.151 45.7379C264.961 45.7122 264.784 45.6864 264.642 45.6399L265.151 45.7379ZM265.151 45.7379C265.392 45.7707 265.653 45.8034 265.882 45.8789M265.151 45.7379L265.882 45.8789M265.882 45.8789C266.321 46.0237 266.645 46.3259 266.498 47.0884L264.119 59.4416C263.755 61.334 262.409 60.9291 261.706 60.8845L259.647 60.4878C259.079 60.3783 258.527 60.7603 258.416 61.3409L257.201 67.6488C256.977 68.8101 257.717 69.929 258.854 70.148L261.943 70.7428L273.78 73.0228C274.633 73.187 275.46 72.6141 275.628 71.7432L280.083 48.6142L284.943 23.3825C285.166 22.2212 284.426 21.1023 283.289 20.8833L261.672 16.7198C259.967 16.3913 258.312 17.5371 257.977 19.279L253.927 40.3054C253.591 42.0473 254.702 43.7256 256.407 44.0541L265.882 45.8789Z" stroke="black" stroke-width="4"/>
</svg>
