<svg width="448" height="449" viewBox="0 0 448 449" fill="none" xmlns="http://www.w3.org/2000/svg">
<path opacity="0.05" fill-rule="evenodd" clip-rule="evenodd" d="M259.004 124.543C243.699 113.507 224.978 106.884 204.68 106.571C151.943 105.759 108.533 147.853 107.722 200.59C107.383 222.568 114.497 242.926 126.727 259.256C102.267 241.618 86.5326 212.708 87.0319 180.269C87.8438 127.532 131.254 85.4384 183.991 86.2503C214.75 86.7238 241.888 101.688 259.004 124.543Z" fill="black"/>
<circle cx="180.868" cy="179.195" r="95.5" transform="rotate(-44.6644 180.868 179.195)" stroke="black" stroke-width="7"/>
<rect x="240.5" y="260.156" width="29" height="153" transform="rotate(-44.6644 240.5 260.156)" stroke="black"/>
<rect x="232.713" y="261.524" width="42" height="7" rx="3" transform="rotate(-44.6644 232.713 261.524)" fill="black"/>
<rect x="341.67" y="371.766" width="42" height="7" rx="3" transform="rotate(-44.6644 341.67 371.766)" fill="black"/>
<path d="M153.46 181.346C153.203 181.327 152.961 181.308 152.766 181.257L153.46 181.346ZM153.46 181.346C153.788 181.37 154.142 181.392 154.457 181.474M153.46 181.346L154.457 181.474M154.457 181.474C155.061 181.632 155.523 182.012 155.39 183.052L153.226 199.897C152.895 202.477 151.048 202.045 150.097 202.045L147.289 201.684C146.514 201.584 145.803 202.145 145.702 202.937L144.597 211.539C144.393 213.122 145.486 214.567 147.036 214.767L151.247 215.307L167.389 217.381C168.552 217.53 169.618 216.688 169.771 215.501L173.821 183.962L178.24 149.555C178.444 147.972 177.352 146.527 175.801 146.328L146.324 142.542C143.999 142.243 141.866 143.926 141.561 146.302L137.879 174.974C137.573 177.349 139.211 179.516 141.537 179.815L154.457 181.474Z" stroke="black" stroke-opacity="0.6" stroke-width="3" stroke-dasharray="8 2"/>
<path d="M203.003 187.708C202.746 187.69 202.504 187.67 202.309 187.619L203.003 187.708ZM203.003 187.708C203.331 187.732 203.685 187.754 204 187.837M203.003 187.708L204 187.837M204 187.837C204.604 187.995 205.066 188.375 204.933 189.414L202.769 206.259C202.438 208.84 200.591 208.408 199.64 208.407L196.832 208.046C196.057 207.947 195.346 208.508 195.245 209.3L194.14 217.901C193.936 219.485 195.028 220.93 196.579 221.129L200.79 221.67L216.932 223.743C218.095 223.892 219.161 223.05 219.314 221.863L223.364 190.324L227.783 155.918C227.987 154.334 226.895 152.889 225.344 152.69L195.867 148.904C193.542 148.605 191.409 150.289 191.104 152.664L187.421 181.336C187.116 183.711 188.754 185.879 191.08 186.177L204 187.837Z" stroke="black" stroke-opacity="0.6" stroke-width="3" stroke-dasharray="8 2"/>
<path d="M264.244 104.534L301.032 70.6719" stroke="black" stroke-width="3" stroke-linecap="round"/>
<path d="M255 94.4922L273.209 70.6506" stroke="black" stroke-width="3" stroke-linecap="round"/>
<path d="M273.727 114.835L298.992 98.6592" stroke="black" stroke-width="3" stroke-linecap="round"/>
</svg>
