<svg width="114" height="99" viewBox="0 0 114 99" fill="none" xmlns="http://www.w3.org/2000/svg">
<path d="M0 6C0 2.68629 2.68629 0 6 0H48C50.2091 0 52 1.79086 52 4V52H6C2.68629 52 0 49.3137 0 46V6Z" fill="black"/>
<path d="M26 52H52V96C52 97.6569 50.6569 99 49 99H26V52Z" fill="black"/>
<path d="M22.9876 52.0006C22.6239 52.0203 22.2821 52.0357 22 52.0004L22.9876 52.0006C23.4521 51.9754 23.9522 51.9432 24.4089 52.0008L26 52.001V54.0017C26 52.551 25.2842 52.1111 24.4089 52.0008L22.9876 52.0006Z" fill="black"/>
<path d="M16 83C16 81.8954 16.8954 81 18 81H26V99H20C17.7909 99 16 97.2091 16 95V83Z" fill="black"/>
<path d="M26 77.5011C26 81.1011 23.3333 80.8336 22 81.0003H26V77.5011Z" fill="black"/>
<path d="M62 6C62 2.68629 64.6863 0 68 0H110C112.209 0 114 1.79086 114 4V52H68C64.6863 52 62 49.3137 62 46V6Z" fill="black"/>
<path d="M88 52H114V96C114 97.6569 112.657 99 111 99H88V52Z" fill="black"/>
<path d="M84.9876 52.0006C84.6239 52.0203 84.2821 52.0357 84 52.0004L84.9876 52.0006C85.4521 51.9754 85.9522 51.9432 86.4089 52.0008L88 52.001V54.0017C88 52.551 87.2842 52.1111 86.4089 52.0008L84.9876 52.0006Z" fill="black"/>
<path d="M78 83C78 81.8954 78.8954 81 80 81H88V99H82C79.7909 99 78 97.2091 78 95V83Z" fill="black"/>
<path d="M88 77.5011C88 81.1011 85.3333 80.8336 84 81.0003H88V77.5011Z" fill="black"/>
</svg>
