<svg width="24" height="24" viewBox="0 0 24 24" fill="none" xmlns="http://www.w3.org/2000/svg">
<g clip-path="url(#clip0_115_5866)">
<path d="M5.31891 14.5036L4.4835 17.6223L1.43011 17.6869C0.517594 15.9944 0 14.0579 0 12.0001C0 10.0102 0.483938 8.13374 1.34175 6.48145H1.34241L4.06078 6.97982L5.25159 9.68188C5.00236 10.4085 4.86652 11.1885 4.86652 12.0001C4.86661 12.881 5.02617 13.725 5.31891 14.5036Z" fill="#E8BA19"/>
<path d="M23.7912 9.7583C23.929 10.4842 24.0008 11.2339 24.0008 12.0001C24.0008 12.8592 23.9105 13.6972 23.7384 14.5056C23.1543 17.2563 21.6279 19.6583 19.5134 21.3581L19.5127 21.3574L16.0888 21.1827L15.6042 18.1576C17.0073 17.3348 18.1038 16.0471 18.6814 14.5056H12.2646V9.7583H18.775H23.7912Z" fill="#4C85DA"/>
<path d="M19.5114 21.3572L19.5121 21.3579C17.4556 23.0109 14.8433 23.9999 11.9996 23.9999C7.42969 23.9999 3.45652 21.4456 1.42969 17.6867L5.31848 14.5034C6.33187 17.208 8.94089 19.1333 11.9996 19.1333C13.3143 19.1333 14.546 18.7779 15.6029 18.1575L19.5114 21.3572Z" fill="#20A51D"/>
<path d="M19.6606 2.76262L15.7731 5.94525C14.6793 5.26153 13.3863 4.86656 12.001 4.86656C8.8731 4.86656 6.21529 6.88017 5.25266 9.68175L1.34343 6.48131H1.34277C3.33993 2.63077 7.36321 0 12.001 0C14.9127 0 17.5823 1.03716 19.6606 2.76262Z" fill="#FC0000"/>
</g>
<defs>
<clipPath id="clip0_115_5866">
<rect width="24" height="24" fill="white"/>
</clipPath>
</defs>
</svg>
